<svg xmlns="http://www.w3.org/2000/svg" viewBox="0 0 800 620" role="img" aria-labelledby="title desc">
  <title id="title">Reversed decking sample fan in warm natural colours</title>
  <desc id="desc">A vector product image showing reversed fan shaped decking sample boards.</desc>
  <defs>
    <filter id="shadow" x="-20%" y="-20%" width="140%" height="140%">
      <feDropShadow dx="0" dy="12" stdDeviation="12" flood-color="#000000" flood-opacity="0.18"/>
    </filter>
    <pattern id="grain" width="18" height="18" patternUnits="userSpaceOnUse">
      <path d="M0 5 C5 1 11 9 18 4 M0 13 C7 17 12 9 18 15" fill="none" stroke="#000" stroke-opacity="0.12" stroke-width="1"/>
    </pattern>
  </defs>
  <rect width="800" height="620" fill="#fff"/>
  <g transform="translate(400 325) scale(-1 1)" filter="url(#shadow)">
    <g transform="rotate(-34)">
      <rect x="-75" y="-210" width="150" height="420" rx="8" fill="#6c5644"/>
      <rect x="-75" y="-210" width="150" height="420" rx="8" fill="url(#grain)"/>
      <path d="M-62 -175 H62 M-62 -105 H62 M-62 -35 H62 M-62 35 H62 M-62 105 H62 M-62 175 H62" stroke="#fff" stroke-opacity="0.12"/>
    </g>
    <g transform="rotate(-18)">
      <rect x="-75" y="-220" width="150" height="440" rx="8" fill="#9b715b"/>
      <rect x="-75" y="-220" width="150" height="440" rx="8" fill="url(#grain)"/>
      <path d="M-62 -178 H62 M-62 -110 H62 M-62 -42 H62 M-62 26 H62 M-62 94 H62 M-62 162 H62" stroke="#fff" stroke-opacity="0.14"/>
    </g>
    <g transform="rotate(-2)">
      <rect x="-75" y="-230" width="150" height="460" rx="8" fill="#d5d0c2"/>
      <rect x="-75" y="-230" width="150" height="460" rx="8" fill="url(#grain)"/>
      <path d="M-62 -185 H62 M-62 -116 H62 M-62 -47 H62 M-62 22 H62 M-62 91 H62 M-62 160 H62" stroke="#7b7468" stroke-opacity="0.2"/>
    </g>
    <g transform="rotate(14)">
      <rect x="-75" y="-230" width="150" height="460" rx="8" fill="#566168"/>
      <rect x="-75" y="-230" width="150" height="460" rx="8" fill="url(#grain)"/>
      <path d="M-62 -185 H62 M-62 -116 H62 M-62 -47 H62 M-62 22 H62 M-62 91 H62 M-62 160 H62" stroke="#fff" stroke-opacity="0.16"/>
    </g>
    <g transform="rotate(30)">
      <rect x="-75" y="-238" width="150" height="476" rx="8" fill="#d8c6a2"/>
      <rect x="-75" y="-238" width="150" height="476" rx="8" fill="url(#grain)"/>
      <path d="M-62 -195 H62 M-62 -122 H62 M-62 -49 H62 M-62 24 H62 M-62 97 H62 M-62 170 H62" stroke="#7b6d53" stroke-opacity="0.22"/>
    </g>
  </g>
</svg>
