<svg xmlns="http://www.w3.org/2000/svg" viewBox="0 0 800 620" role="img" aria-labelledby="title desc">
  <title id="title">Flat lay decking sample scene</title>
  <desc id="desc">A vector flat lay scene with decking samples, pebbles, small plants, and driftwood.</desc>
  <defs>
    <filter id="shadow" x="-20%" y="-20%" width="140%" height="140%">
      <feDropShadow dx="0" dy="9" stdDeviation="10" flood-color="#000" flood-opacity="0.16"/>
    </filter>
    <pattern id="grain" width="18" height="14" patternUnits="userSpaceOnUse">
      <path d="M0 4 C6 0 10 8 18 4 M0 11 C7 15 11 8 18 12" fill="none" stroke="#111" stroke-opacity="0.12"/>
    </pattern>
  </defs>
  <rect width="800" height="620" fill="#f7f4ea"/>
  <g fill="#817763" opacity="0.65">
    <circle cx="120" cy="80" r="12"/><circle cx="154" cy="92" r="9"/><circle cx="187" cy="75" r="13"/><circle cx="221" cy="88" r="10"/>
    <circle cx="632" cy="105" r="13"/><circle cx="662" cy="86" r="10"/><circle cx="694" cy="108" r="12"/><circle cx="721" cy="82" r="9"/>
  </g>
  <path d="M92 485 C160 440 215 500 286 460 C340 430 390 442 455 410" fill="none" stroke="#806448" stroke-width="24" stroke-linecap="round" opacity="0.48"/>
  <path d="M108 480 C182 460 220 486 282 452 C344 414 382 430 442 404" fill="none" stroke="#4f3a2c" stroke-width="5" stroke-linecap="round" opacity="0.34"/>
  <g transform="translate(398 296) scale(-1 1)" filter="url(#shadow)">
    <g transform="translate(-80 -75) rotate(-16)">
      <rect x="-120" y="-50" width="240" height="100" rx="10" fill="#927a58"/>
      <rect x="-120" y="-50" width="240" height="100" rx="10" fill="url(#grain)"/>
    </g>
    <g transform="translate(85 -65) rotate(12)">
      <rect x="-122" y="-55" width="244" height="110" rx="10" fill="#d6c79f"/>
      <rect x="-122" y="-55" width="244" height="110" rx="10" fill="url(#grain)"/>
    </g>
    <g transform="translate(-60 75) rotate(8)">
      <rect x="-118" y="-54" width="236" height="108" rx="10" fill="#a0a292"/>
      <rect x="-118" y="-54" width="236" height="108" rx="10" fill="url(#grain)"/>
    </g>
    <g transform="translate(130 78) rotate(-10)">
      <rect x="-125" y="-55" width="250" height="110" rx="10" fill="#b28761"/>
      <rect x="-125" y="-55" width="250" height="110" rx="10" fill="url(#grain)"/>
    </g>
  </g>
  <g>
    <circle cx="610" cy="360" r="39" fill="#6c854e"/>
    <circle cx="578" cy="382" r="26" fill="#91a863"/>
    <circle cx="644" cy="385" r="25" fill="#557548"/>
    <circle cx="170" cy="285" r="34" fill="#6d884e"/>
    <circle cx="145" cy="304" r="24" fill="#92aa63"/>
    <circle cx="202" cy="308" r="25" fill="#557548"/>
  </g>
</svg>
