<svg xmlns="http://www.w3.org/2000/svg" width="900" height="900" viewBox="0 0 900 900" role="img">

<defs>
<pattern id="grain0" patternUnits="userSpaceOnUse" width="18" height="18">
<rect width="18" height="18" fill="#d8d3c9"/>
<path d="M0 4 C5 1, 12 7, 18 4 M0 11 C6 15, 12 7, 18 12 M2 17 C7 14, 12 20, 18 16" fill="none" stroke="rgba(71,49,34,.34)" stroke-width="1"/>
<path d="M0 8 L18 8 M0 15 L18 15" stroke="rgba(255,255,255,.20)" stroke-width=".8"/>
</pattern>
<pattern id="grain1" patternUnits="userSpaceOnUse" width="18" height="18">
<rect width="18" height="18" fill="#cfc4b8"/>
<path d="M0 4 C5 1, 12 7, 18 4 M0 11 C6 15, 12 7, 18 12 M2 17 C7 14, 12 20, 18 16" fill="none" stroke="rgba(71,49,34,.34)" stroke-width="1"/>
<path d="M0 8 L18 8 M0 15 L18 15" stroke="rgba(255,255,255,.20)" stroke-width=".8"/>
</pattern>
<pattern id="grain2" patternUnits="userSpaceOnUse" width="18" height="18">
<rect width="18" height="18" fill="#b9ad9d"/>
<path d="M0 4 C5 1, 12 7, 18 4 M0 11 C6 15, 12 7, 18 12 M2 17 C7 14, 12 20, 18 16" fill="none" stroke="rgba(71,49,34,.34)" stroke-width="1"/>
<path d="M0 8 L18 8 M0 15 L18 15" stroke="rgba(255,255,255,.20)" stroke-width=".8"/>
</pattern>
<pattern id="grain3" patternUnits="userSpaceOnUse" width="18" height="18">
<rect width="18" height="18" fill="#e0e4e2"/>
<path d="M0 4 C5 1, 12 7, 18 4 M0 11 C6 15, 12 7, 18 12 M2 17 C7 14, 12 20, 18 16" fill="none" stroke="rgba(71,49,34,.34)" stroke-width="1"/>
<path d="M0 8 L18 8 M0 15 L18 15" stroke="rgba(255,255,255,.20)" stroke-width=".8"/>
</pattern>
<pattern id="grain4" patternUnits="userSpaceOnUse" width="18" height="18">
<rect width="18" height="18" fill="#d8b090"/>
<path d="M0 4 C5 1, 12 7, 18 4 M0 11 C6 15, 12 7, 18 12 M2 17 C7 14, 12 20, 18 16" fill="none" stroke="rgba(71,49,34,.34)" stroke-width="1"/>
<path d="M0 8 L18 8 M0 15 L18 15" stroke="rgba(255,255,255,.20)" stroke-width=".8"/>
</pattern>
<pattern id="grain5" patternUnits="userSpaceOnUse" width="18" height="18">
<rect width="18" height="18" fill="#a49a8a"/>
<path d="M0 4 C5 1, 12 7, 18 4 M0 11 C6 15, 12 7, 18 12 M2 17 C7 14, 12 20, 18 16" fill="none" stroke="rgba(71,49,34,.34)" stroke-width="1"/>
<path d="M0 8 L18 8 M0 15 L18 15" stroke="rgba(255,255,255,.20)" stroke-width=".8"/>
</pattern>
<filter id="softShadow" x="-25%" y="-25%" width="150%" height="150%"><feDropShadow dx="0" dy="16" stdDeviation="16" flood-opacity=".18"/></filter>
</defs>

<rect width="900" height="900" fill="#ffffff"/>
<g transform="translate(245 465) rotate(-34)" filter="url(#softShadow)">
<rect x="-102.5" y="-305.0" width="205" height="610" rx="3" fill="url(#grain0)" stroke="rgba(0,0,0,.18)"/>
<path d="M-88.5 -275 C-51.25 -289, 51.25 -259, 88.5 -275" stroke="rgba(255,255,255,.25)" fill="none" stroke-width="2"/>
<path d="M-88.5 -233 C-51.25 -247, 51.25 -217, 88.5 -233" stroke="rgba(255,255,255,.25)" fill="none" stroke-width="2"/>
<path d="M-88.5 -191 C-51.25 -205, 51.25 -175, 88.5 -191" stroke="rgba(255,255,255,.25)" fill="none" stroke-width="2"/>
<path d="M-88.5 -149 C-51.25 -163, 51.25 -133, 88.5 -149" stroke="rgba(255,255,255,.25)" fill="none" stroke-width="2"/>
<path d="M-88.5 -107 C-51.25 -121, 51.25 -91, 88.5 -107" stroke="rgba(255,255,255,.25)" fill="none" stroke-width="2"/>
<path d="M-88.5 -65 C-51.25 -79, 51.25 -49, 88.5 -65" stroke="rgba(255,255,255,.25)" fill="none" stroke-width="2"/>
<path d="M-88.5 -23 C-51.25 -37, 51.25 -7, 88.5 -23" stroke="rgba(255,255,255,.25)" fill="none" stroke-width="2"/>
<path d="M-88.5 19 C-51.25 5, 51.25 35, 88.5 19" stroke="rgba(255,255,255,.25)" fill="none" stroke-width="2"/>
<path d="M-88.5 61 C-51.25 47, 51.25 77, 88.5 61" stroke="rgba(255,255,255,.25)" fill="none" stroke-width="2"/>
<path d="M-88.5 103 C-51.25 89, 51.25 119, 88.5 103" stroke="rgba(255,255,255,.25)" fill="none" stroke-width="2"/>
<path d="M-88.5 145 C-51.25 131, 51.25 161, 88.5 145" stroke="rgba(255,255,255,.25)" fill="none" stroke-width="2"/>
<path d="M-88.5 187 C-51.25 173, 51.25 203, 88.5 187" stroke="rgba(255,255,255,.25)" fill="none" stroke-width="2"/>
<path d="M-88.5 229 C-51.25 215, 51.25 245, 88.5 229" stroke="rgba(255,255,255,.25)" fill="none" stroke-width="2"/>
<path d="M-88.5 271 C-51.25 257, 51.25 287, 88.5 271" stroke="rgba(255,255,255,.25)" fill="none" stroke-width="2"/>
</g>
<g transform="translate(315 465) rotate(-22)" filter="url(#softShadow)">
<rect x="-102.5" y="-305.0" width="205" height="610" rx="3" fill="url(#grain1)" stroke="rgba(0,0,0,.18)"/>
<path d="M-88.5 -275 C-51.25 -289, 51.25 -259, 88.5 -275" stroke="rgba(255,255,255,.25)" fill="none" stroke-width="2"/>
<path d="M-88.5 -233 C-51.25 -247, 51.25 -217, 88.5 -233" stroke="rgba(255,255,255,.25)" fill="none" stroke-width="2"/>
<path d="M-88.5 -191 C-51.25 -205, 51.25 -175, 88.5 -191" stroke="rgba(255,255,255,.25)" fill="none" stroke-width="2"/>
<path d="M-88.5 -149 C-51.25 -163, 51.25 -133, 88.5 -149" stroke="rgba(255,255,255,.25)" fill="none" stroke-width="2"/>
<path d="M-88.5 -107 C-51.25 -121, 51.25 -91, 88.5 -107" stroke="rgba(255,255,255,.25)" fill="none" stroke-width="2"/>
<path d="M-88.5 -65 C-51.25 -79, 51.25 -49, 88.5 -65" stroke="rgba(255,255,255,.25)" fill="none" stroke-width="2"/>
<path d="M-88.5 -23 C-51.25 -37, 51.25 -7, 88.5 -23" stroke="rgba(255,255,255,.25)" fill="none" stroke-width="2"/>
<path d="M-88.5 19 C-51.25 5, 51.25 35, 88.5 19" stroke="rgba(255,255,255,.25)" fill="none" stroke-width="2"/>
<path d="M-88.5 61 C-51.25 47, 51.25 77, 88.5 61" stroke="rgba(255,255,255,.25)" fill="none" stroke-width="2"/>
<path d="M-88.5 103 C-51.25 89, 51.25 119, 88.5 103" stroke="rgba(255,255,255,.25)" fill="none" stroke-width="2"/>
<path d="M-88.5 145 C-51.25 131, 51.25 161, 88.5 145" stroke="rgba(255,255,255,.25)" fill="none" stroke-width="2"/>
<path d="M-88.5 187 C-51.25 173, 51.25 203, 88.5 187" stroke="rgba(255,255,255,.25)" fill="none" stroke-width="2"/>
<path d="M-88.5 229 C-51.25 215, 51.25 245, 88.5 229" stroke="rgba(255,255,255,.25)" fill="none" stroke-width="2"/>
<path d="M-88.5 271 C-51.25 257, 51.25 287, 88.5 271" stroke="rgba(255,255,255,.25)" fill="none" stroke-width="2"/>
</g>
<g transform="translate(385 465) rotate(-10)" filter="url(#softShadow)">
<rect x="-102.5" y="-305.0" width="205" height="610" rx="3" fill="url(#grain2)" stroke="rgba(0,0,0,.18)"/>
<path d="M-88.5 -275 C-51.25 -289, 51.25 -259, 88.5 -275" stroke="rgba(255,255,255,.25)" fill="none" stroke-width="2"/>
<path d="M-88.5 -233 C-51.25 -247, 51.25 -217, 88.5 -233" stroke="rgba(255,255,255,.25)" fill="none" stroke-width="2"/>
<path d="M-88.5 -191 C-51.25 -205, 51.25 -175, 88.5 -191" stroke="rgba(255,255,255,.25)" fill="none" stroke-width="2"/>
<path d="M-88.5 -149 C-51.25 -163, 51.25 -133, 88.5 -149" stroke="rgba(255,255,255,.25)" fill="none" stroke-width="2"/>
<path d="M-88.5 -107 C-51.25 -121, 51.25 -91, 88.5 -107" stroke="rgba(255,255,255,.25)" fill="none" stroke-width="2"/>
<path d="M-88.5 -65 C-51.25 -79, 51.25 -49, 88.5 -65" stroke="rgba(255,255,255,.25)" fill="none" stroke-width="2"/>
<path d="M-88.5 -23 C-51.25 -37, 51.25 -7, 88.5 -23" stroke="rgba(255,255,255,.25)" fill="none" stroke-width="2"/>
<path d="M-88.5 19 C-51.25 5, 51.25 35, 88.5 19" stroke="rgba(255,255,255,.25)" fill="none" stroke-width="2"/>
<path d="M-88.5 61 C-51.25 47, 51.25 77, 88.5 61" stroke="rgba(255,255,255,.25)" fill="none" stroke-width="2"/>
<path d="M-88.5 103 C-51.25 89, 51.25 119, 88.5 103" stroke="rgba(255,255,255,.25)" fill="none" stroke-width="2"/>
<path d="M-88.5 145 C-51.25 131, 51.25 161, 88.5 145" stroke="rgba(255,255,255,.25)" fill="none" stroke-width="2"/>
<path d="M-88.5 187 C-51.25 173, 51.25 203, 88.5 187" stroke="rgba(255,255,255,.25)" fill="none" stroke-width="2"/>
<path d="M-88.5 229 C-51.25 215, 51.25 245, 88.5 229" stroke="rgba(255,255,255,.25)" fill="none" stroke-width="2"/>
<path d="M-88.5 271 C-51.25 257, 51.25 287, 88.5 271" stroke="rgba(255,255,255,.25)" fill="none" stroke-width="2"/>
</g>
<g transform="translate(455 465) rotate(2)" filter="url(#softShadow)">
<rect x="-102.5" y="-305.0" width="205" height="610" rx="3" fill="url(#grain3)" stroke="rgba(0,0,0,.18)"/>
<path d="M-88.5 -275 C-51.25 -289, 51.25 -259, 88.5 -275" stroke="rgba(255,255,255,.25)" fill="none" stroke-width="2"/>
<path d="M-88.5 -233 C-51.25 -247, 51.25 -217, 88.5 -233" stroke="rgba(255,255,255,.25)" fill="none" stroke-width="2"/>
<path d="M-88.5 -191 C-51.25 -205, 51.25 -175, 88.5 -191" stroke="rgba(255,255,255,.25)" fill="none" stroke-width="2"/>
<path d="M-88.5 -149 C-51.25 -163, 51.25 -133, 88.5 -149" stroke="rgba(255,255,255,.25)" fill="none" stroke-width="2"/>
<path d="M-88.5 -107 C-51.25 -121, 51.25 -91, 88.5 -107" stroke="rgba(255,255,255,.25)" fill="none" stroke-width="2"/>
<path d="M-88.5 -65 C-51.25 -79, 51.25 -49, 88.5 -65" stroke="rgba(255,255,255,.25)" fill="none" stroke-width="2"/>
<path d="M-88.5 -23 C-51.25 -37, 51.25 -7, 88.5 -23" stroke="rgba(255,255,255,.25)" fill="none" stroke-width="2"/>
<path d="M-88.5 19 C-51.25 5, 51.25 35, 88.5 19" stroke="rgba(255,255,255,.25)" fill="none" stroke-width="2"/>
<path d="M-88.5 61 C-51.25 47, 51.25 77, 88.5 61" stroke="rgba(255,255,255,.25)" fill="none" stroke-width="2"/>
<path d="M-88.5 103 C-51.25 89, 51.25 119, 88.5 103" stroke="rgba(255,255,255,.25)" fill="none" stroke-width="2"/>
<path d="M-88.5 145 C-51.25 131, 51.25 161, 88.5 145" stroke="rgba(255,255,255,.25)" fill="none" stroke-width="2"/>
<path d="M-88.5 187 C-51.25 173, 51.25 203, 88.5 187" stroke="rgba(255,255,255,.25)" fill="none" stroke-width="2"/>
<path d="M-88.5 229 C-51.25 215, 51.25 245, 88.5 229" stroke="rgba(255,255,255,.25)" fill="none" stroke-width="2"/>
<path d="M-88.5 271 C-51.25 257, 51.25 287, 88.5 271" stroke="rgba(255,255,255,.25)" fill="none" stroke-width="2"/>
</g>
<g transform="translate(525 465) rotate(14)" filter="url(#softShadow)">
<rect x="-102.5" y="-305.0" width="205" height="610" rx="3" fill="url(#grain4)" stroke="rgba(0,0,0,.18)"/>
<path d="M-88.5 -275 C-51.25 -289, 51.25 -259, 88.5 -275" stroke="rgba(255,255,255,.25)" fill="none" stroke-width="2"/>
<path d="M-88.5 -233 C-51.25 -247, 51.25 -217, 88.5 -233" stroke="rgba(255,255,255,.25)" fill="none" stroke-width="2"/>
<path d="M-88.5 -191 C-51.25 -205, 51.25 -175, 88.5 -191" stroke="rgba(255,255,255,.25)" fill="none" stroke-width="2"/>
<path d="M-88.5 -149 C-51.25 -163, 51.25 -133, 88.5 -149" stroke="rgba(255,255,255,.25)" fill="none" stroke-width="2"/>
<path d="M-88.5 -107 C-51.25 -121, 51.25 -91, 88.5 -107" stroke="rgba(255,255,255,.25)" fill="none" stroke-width="2"/>
<path d="M-88.5 -65 C-51.25 -79, 51.25 -49, 88.5 -65" stroke="rgba(255,255,255,.25)" fill="none" stroke-width="2"/>
<path d="M-88.5 -23 C-51.25 -37, 51.25 -7, 88.5 -23" stroke="rgba(255,255,255,.25)" fill="none" stroke-width="2"/>
<path d="M-88.5 19 C-51.25 5, 51.25 35, 88.5 19" stroke="rgba(255,255,255,.25)" fill="none" stroke-width="2"/>
<path d="M-88.5 61 C-51.25 47, 51.25 77, 88.5 61" stroke="rgba(255,255,255,.25)" fill="none" stroke-width="2"/>
<path d="M-88.5 103 C-51.25 89, 51.25 119, 88.5 103" stroke="rgba(255,255,255,.25)" fill="none" stroke-width="2"/>
<path d="M-88.5 145 C-51.25 131, 51.25 161, 88.5 145" stroke="rgba(255,255,255,.25)" fill="none" stroke-width="2"/>
<path d="M-88.5 187 C-51.25 173, 51.25 203, 88.5 187" stroke="rgba(255,255,255,.25)" fill="none" stroke-width="2"/>
<path d="M-88.5 229 C-51.25 215, 51.25 245, 88.5 229" stroke="rgba(255,255,255,.25)" fill="none" stroke-width="2"/>
<path d="M-88.5 271 C-51.25 257, 51.25 287, 88.5 271" stroke="rgba(255,255,255,.25)" fill="none" stroke-width="2"/>
</g>
<g transform="translate(595 465) rotate(26)" filter="url(#softShadow)">
<rect x="-102.5" y="-305.0" width="205" height="610" rx="3" fill="url(#grain5)" stroke="rgba(0,0,0,.18)"/>
<path d="M-88.5 -275 C-51.25 -289, 51.25 -259, 88.5 -275" stroke="rgba(255,255,255,.25)" fill="none" stroke-width="2"/>
<path d="M-88.5 -233 C-51.25 -247, 51.25 -217, 88.5 -233" stroke="rgba(255,255,255,.25)" fill="none" stroke-width="2"/>
<path d="M-88.5 -191 C-51.25 -205, 51.25 -175, 88.5 -191" stroke="rgba(255,255,255,.25)" fill="none" stroke-width="2"/>
<path d="M-88.5 -149 C-51.25 -163, 51.25 -133, 88.5 -149" stroke="rgba(255,255,255,.25)" fill="none" stroke-width="2"/>
<path d="M-88.5 -107 C-51.25 -121, 51.25 -91, 88.5 -107" stroke="rgba(255,255,255,.25)" fill="none" stroke-width="2"/>
<path d="M-88.5 -65 C-51.25 -79, 51.25 -49, 88.5 -65" stroke="rgba(255,255,255,.25)" fill="none" stroke-width="2"/>
<path d="M-88.5 -23 C-51.25 -37, 51.25 -7, 88.5 -23" stroke="rgba(255,255,255,.25)" fill="none" stroke-width="2"/>
<path d="M-88.5 19 C-51.25 5, 51.25 35, 88.5 19" stroke="rgba(255,255,255,.25)" fill="none" stroke-width="2"/>
<path d="M-88.5 61 C-51.25 47, 51.25 77, 88.5 61" stroke="rgba(255,255,255,.25)" fill="none" stroke-width="2"/>
<path d="M-88.5 103 C-51.25 89, 51.25 119, 88.5 103" stroke="rgba(255,255,255,.25)" fill="none" stroke-width="2"/>
<path d="M-88.5 145 C-51.25 131, 51.25 161, 88.5 145" stroke="rgba(255,255,255,.25)" fill="none" stroke-width="2"/>
<path d="M-88.5 187 C-51.25 173, 51.25 203, 88.5 187" stroke="rgba(255,255,255,.25)" fill="none" stroke-width="2"/>
<path d="M-88.5 229 C-51.25 215, 51.25 245, 88.5 229" stroke="rgba(255,255,255,.25)" fill="none" stroke-width="2"/>
<path d="M-88.5 271 C-51.25 257, 51.25 287, 88.5 271" stroke="rgba(255,255,255,.25)" fill="none" stroke-width="2"/>
</g>
</svg>