<svg xmlns="http://www.w3.org/2000/svg" width="1000" height="720" viewBox="0 0 1000 720" role="img">

<defs><linearGradient id="sky" x1="0" x2="0" y1="0" y2="1"><stop offset="0" stop-color="#f8fbff"/><stop offset="1" stop-color="#f7f0df"/></linearGradient><filter id="shadow" x="-20%" y="-20%" width="140%" height="140%"><feDropShadow dx="0" dy="8" stdDeviation="8" flood-opacity=".18"/></filter></defs>
<rect width="1000" height="720" fill="url(#sky)"/>
<rect x="0" y="120" width="1000" height="260" fill="#f2eee7"/>
<rect x="95" y="165" width="190" height="150" rx="2" fill="#ffffff" stroke="#d9d9d9"/>
<line x1="190" y1="165" x2="190" y2="315" stroke="#d9d9d9"/><line x1="95" y1="240" x2="285" y2="240" stroke="#d9d9d9"/>
<rect x="700" y="155" width="210" height="145" rx="2" fill="#ffffff" stroke="#d9d9d9"/>
<line x1="805" y1="155" x2="805" y2="300" stroke="#d9d9d9"/><line x1="700" y1="228" x2="910" y2="228" stroke="#d9d9d9"/>
<polygon points="0,380 1000,380 1000,720 0,720" fill="#c3a17b"/>
<path d="M0 400 L1000 430" stroke="rgba(255,255,255,.18)" stroke-width="2"/>
<path d="M0 442 L1000 472" stroke="rgba(255,255,255,.18)" stroke-width="2"/>
<path d="M0 484 L1000 514" stroke="rgba(255,255,255,.18)" stroke-width="2"/>
<path d="M0 526 L1000 556" stroke="rgba(255,255,255,.18)" stroke-width="2"/>
<path d="M0 568 L1000 598" stroke="rgba(255,255,255,.18)" stroke-width="2"/>
<path d="M0 610 L1000 640" stroke="rgba(255,255,255,.18)" stroke-width="2"/>
<path d="M0 652 L1000 682" stroke="rgba(255,255,255,.18)" stroke-width="2"/>
<path d="M0 694 L1000 724" stroke="rgba(255,255,255,.18)" stroke-width="2"/>
<path d="M-20 380 L160 720" stroke="rgba(0,0,0,.16)" stroke-width="2"/>
<path d="M65 380 L245 720" stroke="rgba(0,0,0,.16)" stroke-width="2"/>
<path d="M150 380 L330 720" stroke="rgba(0,0,0,.16)" stroke-width="2"/>
<path d="M235 380 L415 720" stroke="rgba(0,0,0,.16)" stroke-width="2"/>
<path d="M320 380 L500 720" stroke="rgba(0,0,0,.16)" stroke-width="2"/>
<path d="M405 380 L585 720" stroke="rgba(0,0,0,.16)" stroke-width="2"/>
<path d="M490 380 L670 720" stroke="rgba(0,0,0,.16)" stroke-width="2"/>
<path d="M575 380 L755 720" stroke="rgba(0,0,0,.16)" stroke-width="2"/>
<path d="M660 380 L840 720" stroke="rgba(0,0,0,.16)" stroke-width="2"/>
<path d="M745 380 L925 720" stroke="rgba(0,0,0,.16)" stroke-width="2"/>
<path d="M830 380 L1010 720" stroke="rgba(0,0,0,.16)" stroke-width="2"/>
<path d="M915 380 L1095 720" stroke="rgba(0,0,0,.16)" stroke-width="2"/>
<path d="M1000 380 L1180 720" stroke="rgba(0,0,0,.16)" stroke-width="2"/>
<ellipse cx="520" cy="615" rx="230" ry="45" fill="rgba(0,0,0,.12)"/>
<rect x="370" y="470" width="310" height="74" rx="8" fill="#8a613d" filter="url(#shadow)"/>
<rect x="396" y="540" width="18" height="90" fill="#65523f"/><rect x="640" y="540" width="18" height="90" fill="#65523f"/>
<rect x="280" y="475" width="72" height="85" rx="8" fill="#f7f4ef" stroke="#cfc7bc" filter="url(#shadow)"/>
<rect x="298" y="555" width="10" height="70" fill="#6e6156"/><rect x="325" y="555" width="10" height="70" fill="#6e6156"/>
<rect x="720" y="475" width="72" height="85" rx="8" fill="#f7f4ef" stroke="#cfc7bc" filter="url(#shadow)"/>
<rect x="738" y="555" width="10" height="70" fill="#6e6156"/><rect x="765" y="555" width="10" height="70" fill="#6e6156"/>
<circle cx="485" cy="503" r="14" fill="#f4f4f4"/><circle cx="530" cy="503" r="14" fill="#f4f4f4"/>
<rect x="565" y="488" width="42" height="25" rx="12" fill="#73945c"/>
</svg>