<svg xmlns="http://www.w3.org/2000/svg" width="360" height="180" viewBox="0 0 360 180" role="img">

<defs>
<pattern id="grain0" patternUnits="userSpaceOnUse" width="18" height="18">
<rect width="18" height="18" fill="#d8d3c9"/>
<path d="M0 4 C5 1, 12 7, 18 4 M0 11 C6 15, 12 7, 18 12 M2 17 C7 14, 12 20, 18 16" fill="none" stroke="rgba(71,49,34,.34)" stroke-width="1"/>
<path d="M0 8 L18 8 M0 15 L18 15" stroke="rgba(255,255,255,.20)" stroke-width=".8"/>
</pattern>
<pattern id="grain1" patternUnits="userSpaceOnUse" width="18" height="18">
<rect width="18" height="18" fill="#cfc4b8"/>
<path d="M0 4 C5 1, 12 7, 18 4 M0 11 C6 15, 12 7, 18 12 M2 17 C7 14, 12 20, 18 16" fill="none" stroke="rgba(71,49,34,.34)" stroke-width="1"/>
<path d="M0 8 L18 8 M0 15 L18 15" stroke="rgba(255,255,255,.20)" stroke-width=".8"/>
</pattern>
<pattern id="grain2" patternUnits="userSpaceOnUse" width="18" height="18">
<rect width="18" height="18" fill="#b9ad9d"/>
<path d="M0 4 C5 1, 12 7, 18 4 M0 11 C6 15, 12 7, 18 12 M2 17 C7 14, 12 20, 18 16" fill="none" stroke="rgba(71,49,34,.34)" stroke-width="1"/>
<path d="M0 8 L18 8 M0 15 L18 15" stroke="rgba(255,255,255,.20)" stroke-width=".8"/>
</pattern>
<pattern id="grain3" patternUnits="userSpaceOnUse" width="18" height="18">
<rect width="18" height="18" fill="#e0e4e2"/>
<path d="M0 4 C5 1, 12 7, 18 4 M0 11 C6 15, 12 7, 18 12 M2 17 C7 14, 12 20, 18 16" fill="none" stroke="rgba(71,49,34,.34)" stroke-width="1"/>
<path d="M0 8 L18 8 M0 15 L18 15" stroke="rgba(255,255,255,.20)" stroke-width=".8"/>
</pattern>
<pattern id="grain4" patternUnits="userSpaceOnUse" width="18" height="18">
<rect width="18" height="18" fill="#d8b090"/>
<path d="M0 4 C5 1, 12 7, 18 4 M0 11 C6 15, 12 7, 18 12 M2 17 C7 14, 12 20, 18 16" fill="none" stroke="rgba(71,49,34,.34)" stroke-width="1"/>
<path d="M0 8 L18 8 M0 15 L18 15" stroke="rgba(255,255,255,.20)" stroke-width=".8"/>
</pattern>
<pattern id="grain5" patternUnits="userSpaceOnUse" width="18" height="18">
<rect width="18" height="18" fill="#a49a8a"/>
<path d="M0 4 C5 1, 12 7, 18 4 M0 11 C6 15, 12 7, 18 12 M2 17 C7 14, 12 20, 18 16" fill="none" stroke="rgba(71,49,34,.34)" stroke-width="1"/>
<path d="M0 8 L18 8 M0 15 L18 15" stroke="rgba(255,255,255,.20)" stroke-width=".8"/>
</pattern>
<filter id="softShadow" x="-25%" y="-25%" width="150%" height="150%"><feDropShadow dx="0" dy="16" stdDeviation="16" flood-opacity=".18"/></filter>
</defs>

<rect width="360" height="180" fill="#fff"/>
<rect x="18" y="36" width="48" height="108" rx="2" fill="url(#grain0)" stroke="rgba(0,0,0,.12)"/>
<rect x="72" y="36" width="48" height="108" rx="2" fill="url(#grain1)" stroke="rgba(0,0,0,.12)"/>
<rect x="126" y="36" width="48" height="108" rx="2" fill="url(#grain2)" stroke="rgba(0,0,0,.12)"/>
<rect x="180" y="36" width="48" height="108" rx="2" fill="url(#grain3)" stroke="rgba(0,0,0,.12)"/>
<rect x="234" y="36" width="48" height="108" rx="2" fill="url(#grain4)" stroke="rgba(0,0,0,.12)"/>
<rect x="288" y="36" width="48" height="108" rx="2" fill="url(#grain5)" stroke="rgba(0,0,0,.12)"/>
</svg>